#N canvas 1088 30 1263 592 10;
#X obj 37 83 s audio_on_off;
#X obj 37 237 r audio_on_off;
#X obj 37 258 tgl 15 0 empty empty empty 17 7 0 10 -4032 -1 -1 0 1
;
#X msg 37 275 \; pd dsp \$1 \;;
#X obj -80 126 *~;
#X msg -80 88 bang;
#N canvas 0 50 450 300 (subpatch) 0;
#X array sample1 323584 float 2;
#X coords 0 1 323584 -1 80 50 1;
#X restore -169 118 graph;
#X obj -235 96 soundfiler;
#X floatatom -235 115 8 0 0 0 - - -;
#X obj -235 133 / 44.1;
#X floatatom -235 152 8 0 0 0 - - -;
#X msg -235 77 read -resize \$1 sample1;
#X obj -80 107 tabplay~ sample1;
#X obj 38 170 line~;
#X obj 38 189 s~ VOL;
#X obj -56 126 r~ VOL;
#X obj 38 129 / 100;
#X obj 38 150 pack 0 5;
#X msg -79 2 1;
#X msg -31 2 0;
#X obj 139 59 s volume3;
#X obj 198 59 s channel3L;
#X obj 269 59 s channel3R;
#X obj -80 151 s~ S3out;
#X obj 37 12 netreceive 3002;
#X obj 188 33 print incorrect route selected from 3002;
#X obj 38 109 r volume3;
#X obj 37 35 route 0 1 2 3 4 5;
#X obj 45 59 s play1;
#X obj -232 11 r play1;
#X obj -80 69 r play1;
#X obj 92 59 s play2;
#X obj -79 263 *~;
#X msg -79 225 bang;
#N canvas 0 50 450 300 (subpatch) 0;
#X array sample2 63592 float 2;
#X coords 0 1 63592 -1 80 50 1 0 0;
#X restore -168 255 graph;
#X obj -234 233 soundfiler;
#X floatatom -234 252 8 0 0 0 - - -;
#X obj -234 270 / 44.1;
#X floatatom -234 289 8 0 0 0 - - -;
#X obj -55 263 r~ VOL;
#X obj -79 206 r play2;
#X obj -79 244 tabplay~ sample2;
#X msg -234 214 read -resize \$1 sample2;
#X obj -79 34 s play1;
#X obj -31 34 s play2;
#X obj -234 176 r play2;
#X obj -79 288 s~ S4out;
#X obj -66 -30 print some;
#X msg -235 43 open \$1;
#X symbolatom -104 -70 10 0 0 0 - - -;
#X obj -165 31 print f;
#X msg -234 195 open \$1;
#X connect 1 0 2 0;
#X connect 2 0 3 0;
#X connect 4 0 23 0;
#X connect 5 0 12 0;
#X connect 7 0 8 0;
#X connect 8 0 9 0;
#X connect 9 0 10 0;
#X connect 11 0 7 0;
#X connect 12 0 4 0;
#X connect 13 0 14 0;
#X connect 15 0 4 1;
#X connect 16 0 17 0;
#X connect 17 0 13 0;
#X connect 18 0 43 0;
#X connect 18 0 44 0;
#X connect 19 0 43 0;
#X connect 19 0 44 0;
#X connect 24 0 27 0;
#X connect 26 0 16 0;
#X connect 27 0 0 0;
#X connect 27 1 28 0;
#X connect 27 2 31 0;
#X connect 27 3 20 0;
#X connect 27 4 21 0;
#X connect 27 5 22 0;
#X connect 27 6 25 0;
#X connect 29 0 48 0;
#X connect 29 0 50 0;
#X connect 30 0 5 0;
#X connect 32 0 46 0;
#X connect 33 0 41 0;
#X connect 35 0 36 0;
#X connect 36 0 37 0;
#X connect 37 0 38 0;
#X connect 39 0 32 1;
#X connect 40 0 33 0;
#X connect 41 0 32 0;
#X connect 42 0 35 0;
#X connect 45 0 51 0;
#X connect 48 0 11 0;
#X connect 51 0 42 0;
