#N canvas 356 62 679 380 10;
#X obj 57 147 readsf~;
#X obj 74 275 dac~;
#X obj 62 18 netreceive 3010;
#X obj 148 168 print a;
#X msg 43 124 open \$1 \, 1;
#X obj 249 115 netreceive 3011;
#X obj 241 224 s sound1;
#X obj 243 208 s sound0;
#X obj 242 241 s sound2;
#X obj 244 262 s sound3;
#X obj 245 280 s sound4;
#X obj 242 297 s sound5;
#X obj 371 141 print b;
#X obj 335 211 print c;
#X msg 219 73 alarmOne.aif drone3.wav hit.wav alarmThree.aif engine-high.wav
kick_drum.wav;
#X obj 345 221 print d;
#X obj 355 231 print e;
#X obj 365 241 print f;
#X obj 375 251 print g;
#X obj 385 261 print h;
#X msg -235 77 read -resize \$1 sample1;
#X msg -225 87 read -resize \$1 sample1;
#X msg -225 108;
#X obj 250 163 unpack s s s s s s;
#X connect 0 0 1 0;
#X connect 0 0 1 1;
#X connect 2 0 3 0;
#X connect 2 0 4 0;
#X connect 4 0 0 0;
#X connect 5 0 12 0;
#X connect 5 0 23 0;
#X connect 14 0 23 0;
#X connect 21 0 22 0;
#X connect 23 0 7 0;
#X connect 23 0 13 0;
#X connect 23 1 6 0;
#X connect 23 1 15 0;
#X connect 23 2 8 0;
#X connect 23 2 16 0;
#X connect 23 3 9 0;
#X connect 23 3 17 0;
#X connect 23 4 10 0;
#X connect 23 4 18 0;
#X connect 23 5 11 0;
#X connect 23 5 19 0;
