#N canvas 356 62 679 380 10;
#X obj 57 147 readsf~;
#X obj 74 275 dac~;
#X obj 62 18 netreceive 3010;
#X obj 148 168 print a;
#X msg 43 124 open \$1 \, 1;
#X msg -235 77 read -resize \$1 sample1;
#X msg -225 87 read -resize \$1 sample1;
#X msg -225 108;
#X connect 0 0 1 0;
#X connect 0 0 1 1;
#X connect 2 0 3 0;
#X connect 2 0 4 0;
#X connect 4 0 0 0;
#X connect 6 0 7 0;
