#N canvas 531 213 580 464 10;
#X obj 64 127 readsf~;
#X obj 55 156 dac~;
#X obj 67 66 netreceive 3010;
#X obj 143 99 print a;
#X msg 64 101 open \$1 \, 1;
#X connect 0 0 1 0;
#X connect 0 0 1 1;
#X connect 2 0 3 0;
#X connect 2 0 4 0;
#X connect 4 0 0 0;
