#N canvas -15 281 704 477 10;
#X obj 128 144 s audio_on_off;
#X obj -234 337 r audio_on_off;
#X obj -234 358 tgl 15 0 empty empty empty 17 7 0 10 -4032 -1 -1 0
1;
#X msg -234 375 \; pd dsp \$1 \;;
#X obj -59 129 *~;
#X msg -59 91 bang;
#N canvas 0 50 450 300 (subpatch) 0;
#X array sample6 882000 float 2;
#X coords 0 1 882000 -1 80 50 1;
#X restore -158 116 graph;
#X obj -235 96 soundfiler;
#X floatatom -235 115 8 0 0 0 - - -;
#X obj -235 133 / 44.1;
#X floatatom -235 152 8 0 0 0 - - -;
#X obj 65 136 line~;
#X obj 65 95 / 100;
#X obj 65 116 pack 0 5;
#X msg -79 2 1;
#X msg -23 2 0;
#X obj 138 8 netreceive 3000;
#X obj 138 31 route 0 1 2 3 4;
#X obj 149 109 s volume1;
#X obj 164 92 s channel1L;
#X obj 182 75 s channel1R;
#X obj 65 75 r volume1;
#X obj -59 154 s~ S1out;
#X obj 128 305 s audio_on_off;
#X obj -59 290 *~;
#X msg -59 252 bang;
#N canvas 0 50 450 300 (subpatch) 0;
#X array sample7 718848 float 2;
#X coords 0 1 718848 -1 80 50 1;
#X restore -156 277 graph;
#X obj -235 257 soundfiler;
#X floatatom -235 276 8 0 0 0 - - -;
#X obj -235 294 / 44.1;
#X floatatom -235 313 8 0 0 0 - - -;
#X obj 65 297 line~;
#X obj 65 256 / 100;
#X obj 65 277 pack 0 5;
#X obj 138 192 route 0 1 2 3 4;
#X obj 138 169 netreceive 3001;
#X obj 149 270 s volume2;
#X obj 164 253 s channel2L;
#X obj 182 236 s channel2R;
#X obj 207 58 print incorrect route selected from 3000;
#X obj 207 219 print incorrect route selected from 3001;
#X obj 65 236 r volume2;
#X obj -59 315 s~ S2out;
#X obj 65 155 s~ VOL3;
#X obj 65 316 s~ VOL4;
#X obj -35 129 r~ VOL3;
#X obj -35 290 r~ VOL4;
#X obj -59 110 tabplay~ sample6;
#X msg -235 77 read -resize \$1 sample6;
#X obj -59 271 tabplay~ sample7;
#X msg -235 238 read -resize \$1 sample7;
#X obj -79 34 s play6;
#X obj -23 34 s play7;
#X obj -59 72 r play6;
#X obj -59 233 r play7;
#X obj 137 288 s play7;
#X obj 137 127 s play6;
#X obj -235 39 r play6;
#X obj -235 200 r play7;
#X msg -235 58 open \$1;
#X msg -235 219 open \$1;
#X connect 1 0 2 0;
#X connect 2 0 3 0;
#X connect 4 0 22 0;
#X connect 5 0 47 0;
#X connect 7 0 8 0;
#X connect 8 0 9 0;
#X connect 9 0 10 0;
#X connect 11 0 43 0;
#X connect 12 0 13 0;
#X connect 13 0 11 0;
#X connect 14 0 51 0;
#X connect 14 0 52 0;
#X connect 15 0 51 0;
#X connect 15 0 52 0;
#X connect 16 0 17 0;
#X connect 17 0 0 0;
#X connect 17 1 56 0;
#X connect 17 2 18 0;
#X connect 17 3 19 0;
#X connect 17 4 20 0;
#X connect 17 5 39 0;
#X connect 21 0 12 0;
#X connect 24 0 42 0;
#X connect 25 0 49 0;
#X connect 27 0 28 0;
#X connect 28 0 29 0;
#X connect 29 0 30 0;
#X connect 31 0 44 0;
#X connect 32 0 33 0;
#X connect 33 0 31 0;
#X connect 34 0 23 0;
#X connect 34 1 55 0;
#X connect 34 2 36 0;
#X connect 34 3 37 0;
#X connect 34 4 38 0;
#X connect 34 5 40 0;
#X connect 35 0 34 0;
#X connect 41 0 32 0;
#X connect 45 0 4 1;
#X connect 46 0 24 1;
#X connect 47 0 4 0;
#X connect 48 0 7 0;
#X connect 49 0 24 0;
#X connect 50 0 27 0;
#X connect 53 0 5 0;
#X connect 54 0 25 0;
#X connect 57 0 59 0;
#X connect 58 0 60 0;
#X connect 59 0 48 0;
#X connect 60 0 50 0;
