#N canvas 643 95 875 603 10;
#X obj 159 92 s audio_on_off;
#X obj 166 350 r audio_on_off;
#X obj 166 371 tgl 15 0 empty empty empty 17 7 0 10 -4032 -1 -1 1 1
;
#X msg 166 388 \; pd dsp \$1 \;;
#N canvas 0 50 450 300 (subpatch) 0;
#X array sample3 882000 float 2;
#X coords 0 1 882000 -1 80 50 1 0 0;
#X restore -169 118 graph;
#X obj -235 96 soundfiler;
#X floatatom -235 115 8 0 0 0 - - -, f 8;
#X obj -235 133 / 44.1;
#X floatatom -235 152 8 0 0 0 - - -, f 8;
#X obj 160 179 line~;
#X obj 160 138 / 100;
#X obj 160 159 pack 0 5;
#N canvas 0 50 450 300 (subpatch) 0;
#X array sample4 480000 float 2;
#X coords 0 1 480000 -1 80 50 1 0 0;
#X restore -168 255 graph;
#X obj -234 233 soundfiler;
#X floatatom -234 252 8 0 0 0 - - -, f 8;
#X obj -234 270 / 44.1;
#X floatatom -234 289 8 0 0 0 - - -, f 8;
#X obj 356 32 print incorrect route selected from 3003;
#N canvas 0 50 450 300 (subpatch) 0;
#X array sample5 959488 float 2;
#X coords 0 1 959488 -1 80 50 1 0 0;
#X restore -167 393 graph;
#X obj -233 371 soundfiler;
#X floatatom -233 390 8 0 0 0 - - -, f 8;
#X obj -233 408 / 44.1;
#X floatatom -233 427 8 0 0 0 - - -, f 8;
#X obj 159 44 route 0 1 2 3 4 5 6;
#X obj 167 68 s play3;
#X obj 214 68 s play4;
#X obj 261 68 s play5;
#X obj 307 68 s volume4;
#X obj 366 68 s channel4L;
#X obj 437 68 s channel4R;
#X obj 160 118 r volume4;
#X obj -235 39 r play3;
#X msg -235 77 read -resize \$1 sample3;
#X obj -234 176 r play4;
#X msg -234 214 read -resize \$1 sample4;
#X obj -233 314 r play5;
#X msg -233 352 read -resize \$1 sample5;
#X obj 41 423 *~;
#X obj 41 386 bng 15 250 50 0 empty empty empty 17 7 0 10 -262144 -1
-1;
#X obj 41 366 sel 1 0;
#X obj 134 351 bng 15 250 50 0 empty empty empty 17 7 0 10 -262144
-1 -1;
#X msg 107 348 1;
#X obj 41 345 r play5;
#X obj 41 403 tabplay~ sample5;
#X obj 41 443 s~ S7out;
#X obj 160 198 s~ VOL2;
#X obj 65 423 r~ VOL2;
#X obj -20 406 line~;
#X obj -20 365 / 100;
#X obj -20 386 pack 0 5;
#X floatatom -20 343 5 0 0 0 - - -, f 5;
#X obj 42 285 *~;
#X obj 42 248 bng 15 250 50 0 empty empty empty 17 7 0 10 -262144 -1
-1;
#X obj 42 228 sel 1 0;
#X obj 135 213 bng 15 250 50 0 empty empty empty 17 7 0 10 -262144
-1 -1;
#X msg 108 210 1;
#X obj 66 285 r~ VOL2;
#X obj -19 268 line~;
#X obj -19 227 / 100;
#X obj -19 248 pack 0 5;
#X floatatom -19 205 5 0 0 0 - - -, f 5;
#X obj 42 207 r play4;
#X obj 42 265 tabplay~ sample4;
#X obj 42 305 s~ S6out;
#X obj 50 137 *~;
#X obj 50 100 bng 15 250 50 0 empty empty empty 17 7 0 10 -262144 -1
-1;
#X obj 50 80 sel 1 0;
#X obj 143 65 bng 15 250 50 0 empty empty empty 17 7 0 10 -262144 -1
-1;
#X msg 116 62 1;
#X obj 74 137 r~ VOL2;
#X obj -11 120 line~;
#X obj -11 79 / 100;
#X obj -11 100 pack 0 5;
#X floatatom -11 57 5 0 0 0 - - -, f 5;
#X obj 50 59 r play3;
#X obj 50 117 tabplay~ sample3;
#X obj 50 157 s~ S5out;
#X obj 159 20 netreceive 3003;
#X obj 163 241 netreceive 3004;
#X obj 163 263 route 0 1 2;
#X obj 163 288 s volnorm;
#X obj 222 288 s volmid;
#X obj 273 288 s volhigh;
#X obj 331 288 print incorrect route selected from 3004;
#X obj 21 40 r volnorm;
#X obj 16 188 r volmid;
#X obj 16 326 r volhigh;
#X msg -235 58 open samples/drone1.wav;
#X msg -234 195 open samples/engine-normal.wav;
#X msg -233 332 open samples/sine-mid.aif;
#X connect 1 0 2 0;
#X connect 2 0 3 0;
#X connect 5 0 6 0;
#X connect 6 0 7 0;
#X connect 7 0 8 0;
#X connect 9 0 45 0;
#X connect 10 0 11 0;
#X connect 11 0 9 0;
#X connect 13 0 14 0;
#X connect 14 0 15 0;
#X connect 15 0 16 0;
#X connect 19 0 20 0;
#X connect 20 0 21 0;
#X connect 21 0 22 0;
#X connect 23 0 0 0;
#X connect 23 1 24 0;
#X connect 23 2 25 0;
#X connect 23 3 26 0;
#X connect 23 4 27 0;
#X connect 23 5 28 0;
#X connect 23 6 29 0;
#X connect 23 7 17 0;
#X connect 30 0 10 0;
#X connect 31 0 87 0;
#X connect 32 0 5 0;
#X connect 33 0 88 0;
#X connect 34 0 13 0;
#X connect 35 0 89 0;
#X connect 36 0 19 0;
#X connect 37 0 44 0;
#X connect 38 0 43 0;
#X connect 39 0 38 0;
#X connect 40 0 41 0;
#X connect 41 0 39 0;
#X connect 42 0 39 0;
#X connect 43 0 37 0;
#X connect 43 1 40 0;
#X connect 46 0 37 1;
#X connect 47 0 37 1;
#X connect 48 0 49 0;
#X connect 49 0 47 0;
#X connect 50 0 48 0;
#X connect 51 0 63 0;
#X connect 52 0 62 0;
#X connect 53 0 52 0;
#X connect 54 0 55 0;
#X connect 55 0 53 0;
#X connect 56 0 51 1;
#X connect 57 0 51 1;
#X connect 58 0 59 0;
#X connect 59 0 57 0;
#X connect 60 0 58 0;
#X connect 61 0 53 0;
#X connect 62 0 51 0;
#X connect 62 1 54 0;
#X connect 64 0 76 0;
#X connect 65 0 75 0;
#X connect 66 0 65 0;
#X connect 67 0 68 0;
#X connect 68 0 66 0;
#X connect 69 0 64 1;
#X connect 70 0 64 1;
#X connect 71 0 72 0;
#X connect 72 0 70 0;
#X connect 73 0 71 0;
#X connect 74 0 66 0;
#X connect 75 0 64 0;
#X connect 75 1 67 0;
#X connect 77 0 23 0;
#X connect 78 0 79 0;
#X connect 79 0 80 0;
#X connect 79 1 81 0;
#X connect 79 2 82 0;
#X connect 79 3 83 0;
#X connect 84 0 71 0;
#X connect 85 0 58 0;
#X connect 86 0 48 0;
#X connect 87 0 32 0;
#X connect 88 0 34 0;
#X connect 89 0 36 0;
