#N canvas 909 471 743 295 10;
#X obj 30 62 line~;
#X obj 104 110 dac~ 1;
#X obj 30 43 tgl 15 0 empty empty empty 17 7 0 10 -260097 -1 -1 1 1
;
#X obj 104 221 dac~ 2;
#X obj 30 84 *~;
#X obj 29 193 *~;
#X obj -43 148 r~ S3out;
#X obj 104 171 line~;
#X obj 104 152 tgl 15 0 empty empty empty 17 7 0 10 -260097 -1 -1 0
1;
#X obj 29 171 line~;
#X obj 29 152 tgl 15 0 empty empty empty 17 7 0 10 -260097 -1 -1 1
1;
#X obj 179 171 line~;
#X obj 179 152 tgl 15 0 empty empty empty 17 7 0 10 -260097 -1 -1 1
1;
#X obj 104 130 r channel2R;
#X obj 29 130 r channel1R;
#X obj 179 130 r channel3R;
#X obj 105 62 line~;
#X obj 105 43 tgl 15 0 empty empty empty 17 7 0 10 -260097 -1 -1 0
1;
#X obj 180 62 line~;
#X obj 180 43 tgl 15 0 empty empty empty 17 7 0 10 -260097 -1 -1 1
1;
#X obj 30 21 r channel1L;
#X obj 105 21 r channel2L;
#X obj 180 21 r channel3L;
#X obj -42 114 r~ S2out;
#X obj -41 80 r~ S1out;
#X obj -90 -26 r audio_on_off;
#X obj -90 -5 tgl 40 0 empty empty empty 17 7 0 10 -4032 -1 -1 1 1
;
#X msg -90 39 \; pd dsp \$1 \;;
#X obj 179 193 *~;
#X obj 105 84 *~;
#X obj 180 84 *~;
#X obj 104 193 *~;
#X obj -44 181 r~ S4out;
#X obj 331 61 line~;
#X obj 330 109 dac~ 1;
#X obj 331 42 tgl 15 0 empty empty empty 17 7 0 10 -260097 -1 -1 1
1;
#X obj 331 218 dac~ 2;
#X obj 331 83 *~;
#X obj 330 192 *~;
#X obj 330 170 line~;
#X obj 330 151 tgl 15 0 empty empty empty 17 7 0 10 -260097 -1 -1 1
1;
#X obj 331 20 r channel4L;
#X obj 330 129 r channel4R;
#X obj 260 79 r~ S5out;
#X obj 259 113 r~ S6out;
#X obj 258 147 r~ S7out;
#X connect 0 0 4 0;
#X connect 2 0 0 0;
#X connect 4 0 1 0;
#X connect 5 0 3 0;
#X connect 6 0 28 1;
#X connect 6 0 30 1;
#X connect 7 0 31 0;
#X connect 8 0 7 0;
#X connect 9 0 5 0;
#X connect 10 0 9 0;
#X connect 11 0 28 0;
#X connect 12 0 11 0;
#X connect 13 0 8 0;
#X connect 14 0 10 0;
#X connect 15 0 12 0;
#X connect 16 0 29 0;
#X connect 17 0 16 0;
#X connect 18 0 30 0;
#X connect 19 0 18 0;
#X connect 20 0 2 0;
#X connect 21 0 17 0;
#X connect 22 0 19 0;
#X connect 23 0 29 1;
#X connect 23 0 31 1;
#X connect 24 0 4 1;
#X connect 24 0 5 1;
#X connect 25 0 26 0;
#X connect 26 0 27 0;
#X connect 28 0 3 0;
#X connect 29 0 1 0;
#X connect 30 0 1 0;
#X connect 31 0 3 0;
#X connect 32 0 30 1;
#X connect 32 0 28 1;
#X connect 33 0 37 0;
#X connect 35 0 33 0;
#X connect 37 0 34 0;
#X connect 38 0 36 0;
#X connect 39 0 38 0;
#X connect 40 0 39 0;
#X connect 41 0 35 0;
#X connect 42 0 40 0;
#X connect 43 0 37 1;
#X connect 43 0 38 1;
#X connect 44 0 37 1;
#X connect 44 0 38 1;
#X connect 45 0 38 1;
#X connect 45 0 37 1;
